<?xml version="1.0" encoding="UTF-8"?>
<svg width="10px" height="18px" viewBox="0 0 10 18" version="1.1" xmlns="http://www.w3.org/2000/svg" xmlns:xlink="http://www.w3.org/1999/xlink">
    <title>路径</title>
    <g id="ui页面" stroke="none" stroke-width="1" fill="none" fill-rule="evenodd">
        <g id="尽调任务-任务详情页-待受理-转让过" transform="translate(-20.000000, -60.000000)" fill="#FFFFFF" fill-rule="nonzero">
            <g id="navbar备份" transform="translate(20.000000, 58.000000)">
                <g id="编组-4" transform="translate(0.000000, 1.000000)">
                    <g id="编组">
                        <path d="M0.704136906,1.99163691 C1.00484061,1.6909332 1.47992209,1.67088629 1.80387616,1.93149616 L1.87086309,1.99163691 L9.57086309,9.69163691 C9.8715668,9.99234061 9.89161371,10.4674221 9.63100384,10.7913762 L9.57086309,10.8583631 L1.87086309,18.5583631 C1.54868055,18.8805456 1.02631945,18.8805456 0.704136906,18.5583631 C0.403433201,18.2576594 0.383386287,17.7825779 0.643996165,17.4586238 L0.704136906,17.3916369 L7.8208125,10.275 L0.704136906,3.15836309 C0.403433201,2.85765939 0.383386287,2.38257791 0.643996165,2.05862384 L0.704136906,1.99163691 Z" id="路径" transform="translate(5.137500, 10.275000) scale(-1, 1) translate(-5.137500, -10.275000) "></path>
                    </g>
                </g>
            </g>
        </g>
    </g>
</svg>