<?xml version="1.0" encoding="UTF-8"?>
<svg width="19px" height="18px" viewBox="0 0 19 18" version="1.1" xmlns="http://www.w3.org/2000/svg" xmlns:xlink="http://www.w3.org/1999/xlink">
    <title>ic_more2</title>
    <defs>
        <path d="M8.5875,0.0625 C13.2957275,0.0625 17.1125,3.87927251 17.1125,8.5875 C17.1125,10.5738842 16.4331276,12.4015924 15.2940628,13.8509447 L17.9570436,16.5153175 C18.2792262,16.8375 18.2792262,17.3598611 17.9570436,17.6820436 C17.6348611,18.0042262 17.1125,18.0042262 16.7903175,17.6820436 L14.1528371,15.045448 C12.6594421,16.3335865 10.7144335,17.1125 8.5875,17.1125 C3.87927251,17.1125 0.0625,13.2957275 0.0625,8.5875 C0.0625,3.87927251 3.87927251,0.0625 8.5875,0.0625 Z M8.5875,1.7125 C4.79054235,1.7125 1.7125,4.79054235 1.7125,8.5875 C1.7125,12.3844577 4.79054235,15.4625 8.5875,15.4625 C12.3844577,15.4625 15.4625,12.3844577 15.4625,8.5875 C15.4625,4.79054235 12.3844577,1.7125 8.5875,1.7125 Z" id="path-1"></path>
    </defs>
    <g id="ui页面" stroke="none" stroke-width="1" fill="none" fill-rule="evenodd">
        <g id="尽调任务-待办" transform="translate(-339.000000, -61.000000)">
            <g id="navbar备份" transform="translate(0.000000, 47.000000)">
                <g id="编组-4">
                    <g id="编组">
                        <g id="ic_more2" transform="translate(339.000000, 14.000000)">
                            <mask id="mask-2" fill="white">
                                <use xlink:href="#path-1"></use>
                            </mask>
                            <use id="ic_search" fill="#646464" fill-rule="nonzero" xlink:href="#path-1"></use>
                            <g id="color_black2-100" mask="url(#mask-2)" fill="#646464">
                                <g transform="translate(-4.062500, -4.062500)" id="矩形备份">
                                    <rect x="0" y="0" width="22" height="22"></rect>
                                </g>
                            </g>
                        </g>
                    </g>
                </g>
            </g>
        </g>
    </g>
</svg>